<mxfile host="65bd71144e">
    <diagram id="QoeyBauCDCNXHs-bHfof" name="Page-1">
        <mxGraphModel dx="2951" dy="1783" grid="1" gridSize="10" guides="1" tooltips="1" connect="1" arrows="1" fold="1" page="1" pageScale="1" pageWidth="850" pageHeight="1100" math="0" shadow="0">
            <root>
                <mxCell id="0"/>
                <mxCell id="1" parent="0"/>
                <mxCell id="113" value="" style="rounded=0;whiteSpace=wrap;html=1;" vertex="1" parent="1">
                    <mxGeometry x="50" y="810" width="730" height="440" as="geometry"/>
                </mxCell>
                <mxCell id="56" value="" style="group" vertex="1" connectable="0" parent="1">
                    <mxGeometry x="40" y="60" width="740" height="630" as="geometry"/>
                </mxCell>
                <mxCell id="53" value="" style="rounded=0;whiteSpace=wrap;html=1;" vertex="1" parent="56">
                    <mxGeometry width="740" height="630" as="geometry"/>
                </mxCell>
                <mxCell id="34" value="" style="whiteSpace=wrap;html=1;rounded=0;" vertex="1" parent="56">
                    <mxGeometry x="80" y="380" width="620" height="220" as="geometry"/>
                </mxCell>
                <mxCell id="7" value="" style="rounded=0;whiteSpace=wrap;html=1;" vertex="1" parent="56">
                    <mxGeometry x="290" y="20" width="120" height="60" as="geometry"/>
                </mxCell>
                <mxCell id="8" value="المستخدم" style="rounded=0;whiteSpace=wrap;html=1;" vertex="1" parent="56">
                    <mxGeometry x="30" y="20" width="140" height="60" as="geometry"/>
                </mxCell>
                <mxCell id="9" value="النظام" style="rounded=0;whiteSpace=wrap;html=1;" vertex="1" parent="56">
                    <mxGeometry x="290" y="20" width="120" height="60" as="geometry"/>
                </mxCell>
                <mxCell id="10" value="قاعدة البيانات" style="rounded=0;whiteSpace=wrap;html=1;" vertex="1" parent="56">
                    <mxGeometry x="550" y="20" width="120" height="60" as="geometry"/>
                </mxCell>
                <mxCell id="11" value="" style="endArrow=none;dashed=1;html=1;dashPattern=1 3;strokeWidth=2;entryX=0.45;entryY=1.028;entryDx=0;entryDy=0;entryPerimeter=0;" edge="1" parent="56" target="8">
                    <mxGeometry width="50" height="50" relative="1" as="geometry">
                        <mxPoint x="100" y="550" as="sourcePoint"/>
                        <mxPoint x="110" y="110" as="targetPoint"/>
                    </mxGeometry>
                </mxCell>
                <mxCell id="52" value="alt" style="edgeLabel;html=1;align=center;verticalAlign=middle;resizable=0;points=[];fontStyle=5;fontSize=27;" vertex="1" connectable="0" parent="11">
                    <mxGeometry x="-0.3488" y="-1" relative="1" as="geometry">
                        <mxPoint as="offset"/>
                    </mxGeometry>
                </mxCell>
                <mxCell id="12" value="" style="endArrow=none;dashed=1;html=1;dashPattern=1 3;strokeWidth=2;entryX=0.45;entryY=1.028;entryDx=0;entryDy=0;entryPerimeter=0;" edge="1" parent="56" source="26">
                    <mxGeometry width="50" height="50" relative="1" as="geometry">
                        <mxPoint x="353.5" y="548" as="sourcePoint"/>
                        <mxPoint x="346.5" y="80" as="targetPoint"/>
                    </mxGeometry>
                </mxCell>
                <mxCell id="13" value="" style="endArrow=none;dashed=1;html=1;dashPattern=1 3;strokeWidth=2;entryX=0.45;entryY=1.028;entryDx=0;entryDy=0;entryPerimeter=0;" edge="1" parent="56">
                    <mxGeometry width="50" height="50" relative="1" as="geometry">
                        <mxPoint x="613.5" y="548" as="sourcePoint"/>
                        <mxPoint x="606.5" y="80" as="targetPoint"/>
                    </mxGeometry>
                </mxCell>
                <mxCell id="14" value="" style="endArrow=classic;html=1;" edge="1" parent="56">
                    <mxGeometry width="50" height="50" relative="1" as="geometry">
                        <mxPoint x="100" y="150" as="sourcePoint"/>
                        <mxPoint x="340" y="150" as="targetPoint"/>
                    </mxGeometry>
                </mxCell>
                <mxCell id="15" value="تسجيل دخول (1)" style="text;html=1;align=center;verticalAlign=middle;resizable=0;points=[];autosize=1;strokeColor=none;fillColor=none;" vertex="1" parent="56">
                    <mxGeometry x="165" y="118" width="110" height="30" as="geometry"/>
                </mxCell>
                <mxCell id="17" value="" style="endArrow=classic;html=1;dashed=1;dashPattern=8 8;" edge="1" parent="56">
                    <mxGeometry width="50" height="50" relative="1" as="geometry">
                        <mxPoint x="325" y="190" as="sourcePoint"/>
                        <mxPoint x="95" y="190" as="targetPoint"/>
                    </mxGeometry>
                </mxCell>
                <mxCell id="18" value="إدخال البيانات (2)" style="text;html=1;align=center;verticalAlign=middle;resizable=0;points=[];autosize=1;strokeColor=none;fillColor=none;" vertex="1" parent="56">
                    <mxGeometry x="165" y="160" width="110" height="30" as="geometry"/>
                </mxCell>
                <mxCell id="19" value="" style="endArrow=classic;html=1;entryX=-0.05;entryY=-0.015;entryDx=0;entryDy=0;entryPerimeter=0;" edge="1" parent="56" target="26">
                    <mxGeometry width="50" height="50" relative="1" as="geometry">
                        <mxPoint x="95" y="240" as="sourcePoint"/>
                        <mxPoint x="345" y="240" as="targetPoint"/>
                    </mxGeometry>
                </mxCell>
                <mxCell id="20" value="إدخال اسم المستخدم و كلمة المرور" style="edgeLabel;html=1;align=center;verticalAlign=middle;resizable=0;points=[];" vertex="1" connectable="0" parent="19">
                    <mxGeometry x="-0.0439" relative="1" as="geometry">
                        <mxPoint y="-10" as="offset"/>
                    </mxGeometry>
                </mxCell>
                <mxCell id="25" value="" style="rounded=0;whiteSpace=wrap;html=1;" vertex="1" parent="56">
                    <mxGeometry x="342.5" y="148" width="15" height="40" as="geometry"/>
                </mxCell>
                <mxCell id="27" value="" style="endArrow=none;dashed=1;html=1;dashPattern=1 3;strokeWidth=2;entryX=0.45;entryY=1.028;entryDx=0;entryDy=0;entryPerimeter=0;" edge="1" parent="56" target="26">
                    <mxGeometry width="50" height="50" relative="1" as="geometry">
                        <mxPoint x="353.5" y="548" as="sourcePoint"/>
                        <mxPoint x="346.5" y="80" as="targetPoint"/>
                    </mxGeometry>
                </mxCell>
                <mxCell id="26" value="" style="rounded=0;whiteSpace=wrap;html=1;" vertex="1" parent="56">
                    <mxGeometry x="340" y="240" width="20" height="40" as="geometry"/>
                </mxCell>
                <mxCell id="28" value="" style="endArrow=classic;html=1;entryX=-0.076;entryY=0.424;entryDx=0;entryDy=0;entryPerimeter=0;" edge="1" parent="56">
                    <mxGeometry width="50" height="50" relative="1" as="geometry">
                        <mxPoint x="370" y="280.32" as="sourcePoint"/>
                        <mxPoint x="607" y="280.32" as="targetPoint"/>
                    </mxGeometry>
                </mxCell>
                <mxCell id="29" value="التحقق(4)" style="edgeLabel;html=1;align=center;verticalAlign=middle;resizable=0;points=[];" vertex="1" connectable="0" parent="28">
                    <mxGeometry x="-0.0439" relative="1" as="geometry">
                        <mxPoint y="-10" as="offset"/>
                    </mxGeometry>
                </mxCell>
                <mxCell id="30" value="" style="rounded=0;whiteSpace=wrap;html=1;" vertex="1" parent="56">
                    <mxGeometry x="610" y="250" width="20" height="50" as="geometry"/>
                </mxCell>
                <mxCell id="31" value="" style="rounded=0;whiteSpace=wrap;html=1;" vertex="1" parent="56">
                    <mxGeometry x="610" y="330" width="20" height="50" as="geometry"/>
                </mxCell>
                <mxCell id="32" value="" style="edgeStyle=elbowEdgeStyle;elbow=horizontal;endArrow=classic;html=1;curved=0;rounded=0;endSize=8;startSize=8;entryX=1;entryY=0.25;entryDx=0;entryDy=0;exitX=0.981;exitY=0.617;exitDx=0;exitDy=0;exitPerimeter=0;" edge="1" parent="56" source="30" target="31">
                    <mxGeometry width="50" height="50" relative="1" as="geometry">
                        <mxPoint x="645" y="280" as="sourcePoint"/>
                        <mxPoint x="550" y="340" as="targetPoint"/>
                        <Array as="points">
                            <mxPoint x="700" y="320"/>
                        </Array>
                    </mxGeometry>
                </mxCell>
                <mxCell id="33" value="حفظ (6)" style="text;html=1;align=center;verticalAlign=middle;resizable=0;points=[];autosize=1;strokeColor=none;fillColor=none;" vertex="1" parent="56">
                    <mxGeometry x="640" y="290" width="70" height="30" as="geometry"/>
                </mxCell>
                <mxCell id="40" value="" style="endArrow=none;dashed=1;html=1;exitX=0;exitY=0.5;exitDx=0;exitDy=0;entryX=1;entryY=0.5;entryDx=0;entryDy=0;" edge="1" parent="56" source="34" target="34">
                    <mxGeometry width="50" height="50" relative="1" as="geometry">
                        <mxPoint x="430" y="460" as="sourcePoint"/>
                        <mxPoint x="480" y="410" as="targetPoint"/>
                    </mxGeometry>
                </mxCell>
                <mxCell id="41" value="" style="endArrow=classic;html=1;dashed=1;" edge="1" parent="56">
                    <mxGeometry width="50" height="50" relative="1" as="geometry">
                        <mxPoint x="610" y="430" as="sourcePoint"/>
                        <mxPoint x="350" y="430" as="targetPoint"/>
                    </mxGeometry>
                </mxCell>
                <mxCell id="48" value="رفض" style="edgeLabel;html=1;align=center;verticalAlign=middle;resizable=0;points=[];" vertex="1" connectable="0" parent="41">
                    <mxGeometry x="-0.0096" y="-1" relative="1" as="geometry">
                        <mxPoint as="offset"/>
                    </mxGeometry>
                </mxCell>
                <mxCell id="45" value="" style="endArrow=classic;html=1;dashed=1;" edge="1" parent="56">
                    <mxGeometry width="50" height="50" relative="1" as="geometry">
                        <mxPoint x="610" y="550" as="sourcePoint"/>
                        <mxPoint x="370" y="550" as="targetPoint"/>
                    </mxGeometry>
                </mxCell>
                <mxCell id="49" value="قبول" style="edgeLabel;html=1;align=center;verticalAlign=middle;resizable=0;points=[];" vertex="1" connectable="0" parent="45">
                    <mxGeometry x="-0.0032" relative="1" as="geometry">
                        <mxPoint as="offset"/>
                    </mxGeometry>
                </mxCell>
                <mxCell id="46" value="" style="endArrow=classic;html=1;dashed=1;" edge="1" parent="56">
                    <mxGeometry width="50" height="50" relative="1" as="geometry">
                        <mxPoint x="350" y="460" as="sourcePoint"/>
                        <mxPoint x="100" y="460" as="targetPoint"/>
                    </mxGeometry>
                </mxCell>
                <mxCell id="50" value="رسالة خطأ" style="edgeLabel;html=1;align=center;verticalAlign=middle;resizable=0;points=[];" vertex="1" connectable="0" parent="46">
                    <mxGeometry x="0.008" relative="1" as="geometry">
                        <mxPoint as="offset"/>
                    </mxGeometry>
                </mxCell>
                <mxCell id="47" value="" style="endArrow=classic;html=1;dashed=1;" edge="1" parent="56">
                    <mxGeometry width="50" height="50" relative="1" as="geometry">
                        <mxPoint x="350" y="570" as="sourcePoint"/>
                        <mxPoint x="100" y="570" as="targetPoint"/>
                    </mxGeometry>
                </mxCell>
                <mxCell id="51" value="تم تسجيل الدخول للموقع" style="edgeLabel;html=1;align=center;verticalAlign=middle;resizable=0;points=[];" vertex="1" connectable="0" parent="47">
                    <mxGeometry x="0.0537" y="1" relative="1" as="geometry">
                        <mxPoint as="offset"/>
                    </mxGeometry>
                </mxCell>
                <mxCell id="57" value="تسجيل دخول للمدير و موظف المكتبة و المستخدم العادي" style="text;html=1;align=center;verticalAlign=middle;resizable=0;points=[];autosize=1;strokeColor=none;fillColor=none;labelBackgroundColor=#DDFF59;" vertex="1" parent="1">
                    <mxGeometry x="480" y="30" width="300" height="30" as="geometry"/>
                </mxCell>
                <mxCell id="93" value="Sequence Diagram" style="text;html=1;align=center;verticalAlign=middle;resizable=0;points=[];autosize=1;strokeColor=none;fillColor=none;fontStyle=1;fontSize=16;labelBackgroundColor=#99FF33;" vertex="1" parent="1">
                    <mxGeometry x="60" y="28" width="160" height="30" as="geometry"/>
                </mxCell>
                <mxCell id="111" value="" style="group" vertex="1" connectable="0" parent="1">
                    <mxGeometry x="160" y="900" width="500" height="308" as="geometry"/>
                </mxCell>
                <mxCell id="95" value="&lt;span id=&quot;docs-internal-guid-b2503165-7fff-81a5-fd3a-57290988a838&quot; style=&quot;font-weight:normal;&quot;&gt;&lt;span style=&quot;font-size: 11pt; font-family: Arial, sans-serif; color: rgb(0, 0, 0); background-color: transparent; font-variant-numeric: normal; font-variant-east-asian: normal; font-variant-alternates: normal; font-variant-position: normal; font-variant-emoji: normal; vertical-align: baseline; white-space-collapse: preserve;&quot;&gt;User&lt;/span&gt;&lt;/span&gt;" style="swimlane;fontStyle=1;align=center;verticalAlign=top;childLayout=stackLayout;horizontal=1;startSize=26;horizontalStack=0;resizeParent=1;resizeParentMax=0;resizeLast=0;collapsible=1;marginBottom=0;whiteSpace=wrap;html=1;" vertex="1" parent="111">
                    <mxGeometry width="160" height="130" as="geometry"/>
                </mxCell>
                <mxCell id="96" value="userID&lt;br&gt;userName&lt;br&gt;password" style="text;strokeColor=none;fillColor=none;align=left;verticalAlign=top;spacingLeft=4;spacingRight=4;overflow=hidden;rotatable=0;points=[[0,0.5],[1,0.5]];portConstraint=eastwest;whiteSpace=wrap;html=1;" vertex="1" parent="95">
                    <mxGeometry y="26" width="160" height="54" as="geometry"/>
                </mxCell>
                <mxCell id="97" value="" style="line;strokeWidth=1;fillColor=none;align=left;verticalAlign=middle;spacingTop=-1;spacingLeft=3;spacingRight=3;rotatable=0;labelPosition=right;points=[];portConstraint=eastwest;strokeColor=inherit;" vertex="1" parent="95">
                    <mxGeometry y="80" width="160" height="8" as="geometry"/>
                </mxCell>
                <mxCell id="98" value="login()&lt;br&gt;logout()" style="text;strokeColor=none;fillColor=none;align=left;verticalAlign=top;spacingLeft=4;spacingRight=4;overflow=hidden;rotatable=0;points=[[0,0.5],[1,0.5]];portConstraint=eastwest;whiteSpace=wrap;html=1;" vertex="1" parent="95">
                    <mxGeometry y="88" width="160" height="42" as="geometry"/>
                </mxCell>
                <mxCell id="99" value="&lt;span id=&quot;docs-internal-guid-b2503165-7fff-81a5-fd3a-57290988a838&quot; style=&quot;font-weight:normal;&quot;&gt;&lt;span style=&quot;font-size: 11pt; font-family: Arial, sans-serif; color: rgb(0, 0, 0); background-color: transparent; font-variant-numeric: normal; font-variant-east-asian: normal; font-variant-alternates: normal; font-variant-position: normal; font-variant-emoji: normal; vertical-align: baseline; white-space-collapse: preserve;&quot;&gt;Book&lt;/span&gt;&lt;/span&gt;" style="swimlane;fontStyle=1;align=center;verticalAlign=top;childLayout=stackLayout;horizontal=1;startSize=26;horizontalStack=0;resizeParent=1;resizeParentMax=0;resizeLast=0;collapsible=1;marginBottom=0;whiteSpace=wrap;html=1;" vertex="1" parent="111">
                    <mxGeometry x="340" width="160" height="148" as="geometry"/>
                </mxCell>
                <mxCell id="100" value="bookID&lt;br&gt;title&lt;br&gt;author&lt;br&gt;ISBN" style="text;strokeColor=none;fillColor=none;align=left;verticalAlign=top;spacingLeft=4;spacingRight=4;overflow=hidden;rotatable=0;points=[[0,0.5],[1,0.5]];portConstraint=eastwest;whiteSpace=wrap;html=1;" vertex="1" parent="99">
                    <mxGeometry y="26" width="160" height="64" as="geometry"/>
                </mxCell>
                <mxCell id="101" value="" style="line;strokeWidth=1;fillColor=none;align=left;verticalAlign=middle;spacingTop=-1;spacingLeft=3;spacingRight=3;rotatable=0;labelPosition=right;points=[];portConstraint=eastwest;strokeColor=inherit;" vertex="1" parent="99">
                    <mxGeometry y="90" width="160" height="8" as="geometry"/>
                </mxCell>
                <mxCell id="102" value="loan()&lt;br&gt;return()" style="text;strokeColor=none;fillColor=none;align=left;verticalAlign=top;spacingLeft=4;spacingRight=4;overflow=hidden;rotatable=0;points=[[0,0.5],[1,0.5]];portConstraint=eastwest;whiteSpace=wrap;html=1;" vertex="1" parent="99">
                    <mxGeometry y="98" width="160" height="50" as="geometry"/>
                </mxCell>
                <mxCell id="103" value="&lt;span id=&quot;docs-internal-guid-b2503165-7fff-81a5-fd3a-57290988a838&quot; style=&quot;font-weight:normal;&quot;&gt;&lt;span style=&quot;font-size: 11pt; font-family: Arial, sans-serif; color: rgb(0, 0, 0); background-color: transparent; font-variant-numeric: normal; font-variant-east-asian: normal; font-variant-alternates: normal; font-variant-position: normal; font-variant-emoji: normal; vertical-align: baseline; white-space-collapse: preserve;&quot;&gt;Loan&lt;/span&gt;&lt;/span&gt;" style="swimlane;fontStyle=1;align=center;verticalAlign=top;childLayout=stackLayout;horizontal=1;startSize=26;horizontalStack=0;resizeParent=1;resizeParentMax=0;resizeLast=0;collapsible=1;marginBottom=0;whiteSpace=wrap;html=1;" vertex="1" parent="111">
                    <mxGeometry x="160" y="160" width="160" height="148" as="geometry"/>
                </mxCell>
                <mxCell id="104" value="bookID&lt;br&gt;userID&lt;br&gt;loanID&lt;br&gt;ISBN" style="text;strokeColor=none;fillColor=none;align=left;verticalAlign=top;spacingLeft=4;spacingRight=4;overflow=hidden;rotatable=0;points=[[0,0.5],[1,0.5]];portConstraint=eastwest;whiteSpace=wrap;html=1;" vertex="1" parent="103">
                    <mxGeometry y="26" width="160" height="64" as="geometry"/>
                </mxCell>
                <mxCell id="105" value="" style="line;strokeWidth=1;fillColor=none;align=left;verticalAlign=middle;spacingTop=-1;spacingLeft=3;spacingRight=3;rotatable=0;labelPosition=right;points=[];portConstraint=eastwest;strokeColor=inherit;" vertex="1" parent="103">
                    <mxGeometry y="90" width="160" height="8" as="geometry"/>
                </mxCell>
                <mxCell id="106" value="issue Date()&lt;br&gt;return Date()" style="text;strokeColor=none;fillColor=none;align=left;verticalAlign=top;spacingLeft=4;spacingRight=4;overflow=hidden;rotatable=0;points=[[0,0.5],[1,0.5]];portConstraint=eastwest;whiteSpace=wrap;html=1;" vertex="1" parent="103">
                    <mxGeometry y="98" width="160" height="50" as="geometry"/>
                </mxCell>
                <mxCell id="108" style="edgeStyle=none;html=1;entryX=-0.019;entryY=0.22;entryDx=0;entryDy=0;entryPerimeter=0;" edge="1" parent="111" source="98" target="104">
                    <mxGeometry relative="1" as="geometry">
                        <Array as="points">
                            <mxPoint x="80" y="200"/>
                        </Array>
                    </mxGeometry>
                </mxCell>
                <mxCell id="110" style="edgeStyle=none;html=1;entryX=0.58;entryY=1.001;entryDx=0;entryDy=0;entryPerimeter=0;" edge="1" parent="111" source="103" target="102">
                    <mxGeometry relative="1" as="geometry">
                        <Array as="points">
                            <mxPoint x="433" y="234"/>
                        </Array>
                    </mxGeometry>
                </mxCell>
                <mxCell id="112" value="&lt;span id=&quot;docs-internal-guid-3ead2aad-7fff-60e1-7d81-b4533a13455a&quot;&gt;&lt;span style=&quot;font-size: 14pt; font-family: Arial, sans-serif; color: rgb(67, 67, 67); font-variant-numeric: normal; font-variant-east-asian: normal; font-variant-alternates: normal; font-variant-position: normal; font-variant-emoji: normal; vertical-align: baseline; white-space: pre-wrap; background-color: light-dark(rgb(110, 213, 72), rgb(237, 237, 237));&quot;&gt;Class Diagram&lt;/span&gt;&lt;/span&gt;" style="text;html=1;align=left;verticalAlign=middle;resizable=0;points=[];autosize=1;strokeColor=none;fillColor=none;fontStyle=1;labelPosition=left;verticalLabelPosition=middle;textDirection=ltr;" vertex="1" parent="1">
                    <mxGeometry x="310" y="850" width="150" height="40" as="geometry"/>
                </mxCell>
                <mxCell id="114" value="&lt;span id=&quot;docs-internal-guid-0e8513aa-7fff-b731-a361-91bb66fbdc82&quot;&gt;&lt;h4 dir=&quot;rtl&quot; style=&quot;line-height: 1.38; margin-top: 14pt; margin-bottom: 4pt;&quot;&gt;&lt;span style=&quot;font-size: 12pt; font-family: Arial, sans-serif; color: rgb(102, 102, 102); background-color: transparent; font-variant-numeric: normal; font-variant-east-asian: normal; font-variant-alternates: normal; font-variant-position: normal; font-variant-emoji: normal; vertical-align: baseline; white-space: pre-wrap;&quot;&gt;الفئات الرئيسية:&lt;/span&gt;&lt;/h4&gt;&lt;ul style=&quot;margin-top:0;margin-bottom:0;padding-inline-start:48px;&quot;&gt;&lt;li dir=&quot;rtl&quot; style=&quot;list-style-type: disc; font-size: 11pt; font-family: Arial, sans-serif; color: rgb(0, 0, 0); background-color: transparent; font-variant-numeric: normal; font-variant-east-asian: normal; font-variant-alternates: normal; font-variant-position: normal; font-variant-emoji: normal; vertical-align: baseline; white-space-collapse: preserve;&quot; aria-level=&quot;1&quot;&gt;&lt;p dir=&quot;rtl&quot; style=&quot;line-height: 1.38; margin-top: 0pt; margin-bottom: 0pt;&quot; role=&quot;presentation&quot;&gt;&lt;span style=&quot;font-size: 11pt; color: rgb(0, 0, 0); background-color: transparent; font-variant-numeric: normal; font-variant-east-asian: normal; font-variant-alternates: normal; font-variant-position: normal; font-variant-emoji: normal; vertical-align: baseline; text-wrap-mode: wrap;&quot;&gt;User :&lt;/span&gt;&lt;/p&gt;&lt;/li&gt;&lt;ul style=&quot;margin-top:0;margin-bottom:0;padding-inline-start:48px;&quot;&gt;&lt;li dir=&quot;rtl&quot; style=&quot;list-style-type: disc; font-size: 11pt; font-family: Arial, sans-serif; color: rgb(0, 0, 0); background-color: transparent; font-variant-numeric: normal; font-variant-east-asian: normal; font-variant-alternates: normal; font-variant-position: normal; font-variant-emoji: normal; vertical-align: baseline; white-space-collapse: preserve;&quot; aria-level=&quot;2&quot;&gt;&lt;p dir=&quot;rtl&quot; style=&quot;line-height: 1.38; margin-top: 0pt; margin-bottom: 0pt;&quot; role=&quot;presentation&quot;&gt;&lt;span style=&quot;font-size: 11pt; color: rgb(0, 0, 0); background-color: transparent; font-variant-numeric: normal; font-variant-east-asian: normal; font-variant-alternates: normal; font-variant-position: normal; font-variant-emoji: normal; vertical-align: baseline; text-wrap-mode: wrap;&quot;&gt;الخصائص: UserID, Username, Password.&lt;/span&gt;&lt;/p&gt;&lt;/li&gt;&lt;li dir=&quot;rtl&quot; style=&quot;list-style-type: disc; font-size: 11pt; font-family: Arial, sans-serif; color: rgb(0, 0, 0); background-color: transparent; font-variant-numeric: normal; font-variant-east-asian: normal; font-variant-alternates: normal; font-variant-position: normal; font-variant-emoji: normal; vertical-align: baseline; white-space-collapse: preserve;&quot; aria-level=&quot;2&quot;&gt;&lt;p dir=&quot;rtl&quot; style=&quot;line-height: 1.38; margin-top: 0pt; margin-bottom: 0pt;&quot; role=&quot;presentation&quot;&gt;&lt;span style=&quot;font-size: 11pt; color: rgb(0, 0, 0); background-color: transparent; font-variant-numeric: normal; font-variant-east-asian: normal; font-variant-alternates: normal; font-variant-position: normal; font-variant-emoji: normal; vertical-align: baseline; text-wrap-mode: wrap;&quot;&gt;الوظائف: Login(), Logout().&lt;/span&gt;&lt;/p&gt;&lt;/li&gt;&lt;/ul&gt;&lt;li dir=&quot;rtl&quot; style=&quot;list-style-type: disc; font-size: 11pt; font-family: Arial, sans-serif; color: rgb(0, 0, 0); background-color: transparent; font-variant-numeric: normal; font-variant-east-asian: normal; font-variant-alternates: normal; font-variant-position: normal; font-variant-emoji: normal; vertical-align: baseline; white-space-collapse: preserve;&quot; aria-level=&quot;1&quot;&gt;&lt;p dir=&quot;rtl&quot; style=&quot;line-height: 1.38; margin-top: 0pt; margin-bottom: 0pt;&quot; role=&quot;presentation&quot;&gt;&lt;span style=&quot;font-size: 11pt; color: rgb(0, 0, 0); background-color: transparent; font-variant-numeric: normal; font-variant-east-asian: normal; font-variant-alternates: normal; font-variant-position: normal; font-variant-emoji: normal; vertical-align: baseline; text-wrap-mode: wrap;&quot;&gt;Book :&lt;/span&gt;&lt;/p&gt;&lt;/li&gt;&lt;ul style=&quot;margin-top:0;margin-bottom:0;padding-inline-start:48px;&quot;&gt;&lt;li dir=&quot;rtl&quot; style=&quot;list-style-type: disc; font-size: 11pt; font-family: Arial, sans-serif; color: rgb(0, 0, 0); background-color: transparent; font-variant-numeric: normal; font-variant-east-asian: normal; font-variant-alternates: normal; font-variant-position: normal; font-variant-emoji: normal; vertical-align: baseline; white-space-collapse: preserve;&quot; aria-level=&quot;2&quot;&gt;&lt;p dir=&quot;rtl&quot; style=&quot;line-height: 1.38; margin-top: 0pt; margin-bottom: 0pt;&quot; role=&quot;presentation&quot;&gt;&lt;span style=&quot;font-size: 11pt; color: rgb(0, 0, 0); background-color: transparent; font-variant-numeric: normal; font-variant-east-asian: normal; font-variant-alternates: normal; font-variant-position: normal; font-variant-emoji: normal; vertical-align: baseline; text-wrap-mode: wrap;&quot;&gt;الخصائص: BookID, Title, Author, ISBN.&lt;/span&gt;&lt;/p&gt;&lt;/li&gt;&lt;li dir=&quot;rtl&quot; style=&quot;list-style-type: disc; font-size: 11pt; font-family: Arial, sans-serif; color: rgb(0, 0, 0); background-color: transparent; font-variant-numeric: normal; font-variant-east-asian: normal; font-variant-alternates: normal; font-variant-position: normal; font-variant-emoji: normal; vertical-align: baseline; white-space-collapse: preserve;&quot; aria-level=&quot;2&quot;&gt;&lt;p dir=&quot;rtl&quot; style=&quot;line-height: 1.38; margin-top: 0pt; margin-bottom: 0pt;&quot; role=&quot;presentation&quot;&gt;&lt;span style=&quot;font-size: 11pt; color: rgb(0, 0, 0); background-color: transparent; font-variant-numeric: normal; font-variant-east-asian: normal; font-variant-alternates: normal; font-variant-position: normal; font-variant-emoji: normal; vertical-align: baseline; text-wrap-mode: wrap;&quot;&gt;الوظائف: AddBook(), UpdateBook(), DeleteBook().&lt;/span&gt;&lt;/p&gt;&lt;/li&gt;&lt;/ul&gt;&lt;li dir=&quot;rtl&quot; style=&quot;list-style-type: disc; font-size: 11pt; font-family: Arial, sans-serif; color: rgb(0, 0, 0); background-color: transparent; font-variant-numeric: normal; font-variant-east-asian: normal; font-variant-alternates: normal; font-variant-position: normal; font-variant-emoji: normal; vertical-align: baseline; white-space-collapse: preserve;&quot; aria-level=&quot;1&quot;&gt;&lt;p dir=&quot;rtl&quot; style=&quot;line-height: 1.38; margin-top: 0pt; margin-bottom: 0pt;&quot; role=&quot;presentation&quot;&gt;&lt;span style=&quot;font-size: 11pt; color: rgb(0, 0, 0); background-color: transparent; font-variant-numeric: normal; font-variant-east-asian: normal; font-variant-alternates: normal; font-variant-position: normal; font-variant-emoji: normal; vertical-align: baseline; text-wrap-mode: wrap;&quot;&gt;Loan :&lt;/span&gt;&lt;/p&gt;&lt;/li&gt;&lt;ul style=&quot;margin-top:0;margin-bottom:0;padding-inline-start:48px;&quot;&gt;&lt;li dir=&quot;rtl&quot; style=&quot;list-style-type: disc; font-size: 11pt; font-family: Arial, sans-serif; color: rgb(0, 0, 0); background-color: transparent; font-variant-numeric: normal; font-variant-east-asian: normal; font-variant-alternates: normal; font-variant-position: normal; font-variant-emoji: normal; vertical-align: baseline; white-space-collapse: preserve;&quot; aria-level=&quot;2&quot;&gt;&lt;p dir=&quot;rtl&quot; style=&quot;line-height: 1.38; margin-top: 0pt; margin-bottom: 0pt;&quot; role=&quot;presentation&quot;&gt;&lt;span style=&quot;font-size: 11pt; color: rgb(0, 0, 0); background-color: transparent; font-variant-numeric: normal; font-variant-east-asian: normal; font-variant-alternates: normal; font-variant-position: normal; font-variant-emoji: normal; vertical-align: baseline; text-wrap-mode: wrap;&quot;&gt;الخصائص: LoanID, BookID, UserID, IssueDate, ReturnDate.&lt;/span&gt;&lt;/p&gt;&lt;/li&gt;&lt;li dir=&quot;rtl&quot; style=&quot;list-style-type: disc; font-size: 11pt; font-family: Arial, sans-serif; color: rgb(0, 0, 0); background-color: transparent; font-variant-numeric: normal; font-variant-east-asian: normal; font-variant-alternates: normal; font-variant-position: normal; font-variant-emoji: normal; vertical-align: baseline; white-space-collapse: preserve;&quot; aria-level=&quot;2&quot;&gt;&lt;p dir=&quot;rtl&quot; style=&quot;line-height: 1.38; margin-top: 0pt; margin-bottom: 0pt;&quot; role=&quot;presentation&quot;&gt;&lt;span style=&quot;font-size: 11pt; color: rgb(0, 0, 0); background-color: transparent; font-variant-numeric: normal; font-variant-east-asian: normal; font-variant-alternates: normal; font-variant-position: normal; font-variant-emoji: normal; vertical-align: baseline; text-wrap-mode: wrap;&quot;&gt;الوظائف: BorrowBook(), ReturnBook().&lt;/span&gt;&lt;/p&gt;&lt;/li&gt;&lt;/ul&gt;&lt;/ul&gt;&lt;h4 dir=&quot;rtl&quot; style=&quot;line-height: 1.38; margin-top: 14pt; margin-bottom: 4pt;&quot;&gt;&lt;span style=&quot;font-size: 12pt; font-family: Arial, sans-serif; color: rgb(102, 102, 102); background-color: transparent; font-variant-numeric: normal; font-variant-east-asian: normal; font-variant-alternates: normal; font-variant-position: normal; font-variant-emoji: normal; vertical-align: baseline; white-space: pre-wrap;&quot;&gt;العلاقات:&lt;/span&gt;&lt;/h4&gt;&lt;ul style=&quot;margin-top:0;margin-bottom:0;padding-inline-start:48px;&quot;&gt;&lt;li dir=&quot;rtl&quot; style=&quot;list-style-type: disc; font-size: 11pt; font-family: Arial, sans-serif; color: rgb(0, 0, 0); background-color: transparent; font-variant-numeric: normal; font-variant-east-asian: normal; font-variant-alternates: normal; font-variant-position: normal; font-variant-emoji: normal; vertical-align: baseline; white-space-collapse: preserve;&quot; aria-level=&quot;1&quot;&gt;&lt;p dir=&quot;rtl&quot; style=&quot;line-height: 1.38; margin-top: 0pt; margin-bottom: 0pt;&quot; role=&quot;presentation&quot;&gt;&lt;span style=&quot;font-size: 11pt; color: rgb(0, 0, 0); background-color: transparent; font-variant-numeric: normal; font-variant-east-asian: normal; font-variant-alternates: normal; font-variant-position: normal; font-variant-emoji: normal; vertical-align: baseline; text-wrap-mode: wrap;&quot;&gt;العلاقة بين User وLoan : علاقة &quot;واحد إلى كثير&quot; (One-to-Many).&lt;/span&gt;&lt;/p&gt;&lt;/li&gt;&lt;li dir=&quot;rtl&quot; style=&quot;list-style-type: disc; font-size: 11pt; font-family: Arial, sans-serif; color: rgb(0, 0, 0); background-color: transparent; font-variant-numeric: normal; font-variant-east-asian: normal; font-variant-alternates: normal; font-variant-position: normal; font-variant-emoji: normal; vertical-align: baseline; white-space-collapse: preserve;&quot; aria-level=&quot;1&quot;&gt;&lt;p dir=&quot;rtl&quot; style=&quot;line-height: 1.38; margin-top: 0pt; margin-bottom: 0pt;&quot; role=&quot;presentation&quot;&gt;&lt;span style=&quot;font-size: 11pt; color: rgb(0, 0, 0); background-color: transparent; font-variant-numeric: normal; font-variant-east-asian: normal; font-variant-alternates: normal; font-variant-position: normal; font-variant-emoji: normal; vertical-align: baseline; text-wrap-mode: wrap;&quot;&gt;العلاقة بين Book وLoan : علاقة &quot;واحد إلى كثير&quot;.&lt;/span&gt;&lt;/p&gt;&lt;/li&gt;&lt;/ul&gt;&lt;/span&gt;" style="text;html=1;align=right;verticalAlign=middle;resizable=0;points=[];autosize=1;strokeColor=none;fillColor=none;labelPosition=center;verticalLabelPosition=middle;fontStyle=1;labelBorderColor=none;textShadow=0;" vertex="1" parent="1">
                    <mxGeometry x="400" y="890" width="500" height="390" as="geometry"/>
                </mxCell>
            </root>
        </mxGraphModel>
    </diagram>
</mxfile>